<?xml version="1.0" encoding="UTF-8" standalone="no"?>
<!DOCTYPE svg PUBLIC "-//W3C//DTD SVG 1.1//EN" "http://www.w3.org/Graphics/SVG/1.1/DTD/svg11.dtd">
<!-- Generated by graphviz version 2.44.1 (20201121.0304)
 -->
<!-- Title: G Pages: 1 -->
<svg xmlns="http://www.w3.org/2000/svg" xmlns:xlink="http://www.w3.org/1999/xlink" width="988pt" height="306pt" viewBox="0.00 0.00 988.00 306.00"><script>
(function() {
  var enablePanZoom = false;
  var enablePanZoomControls = false;
  var panZoomScriptUrl = "https://graphviz.corp.google.com/svg-pan-zoom.js";

  var isEmbedded = true;
  try {
    // This condition is true when the SVG is being displayed in a
    // top-level browser window. If the parent location's href is
    // different, or we can't access it (due to security constraints
    // on accessing javascript properties on a different domain),
    // then the document is embedded.
    if (window.location.href == window.parent.location.href) {
      isEmbedded = false;
    }
  } catch (e) {}

  if (!isEmbedded) enablePanZoom = true;

  if (enablePanZoom &amp;&amp; typeof svgPanZoom === 'undefined') {
    var panZoomScript =
      document.createElementNS('http://www.w3.org/2000/svg', 'script');
    panZoomScript.setAttributeNS(
      'http://www.w3.org/1999/xlink', 'xlink:href', panZoomScriptUrl);
    document.currentScript.parentElement.appendChild(panZoomScript);
  }

  window.onload = function() {
    var svg = document.getElementsByTagName("svg")[0];

    if (!isEmbedded) {
      svg.removeAttribute("width");
      svg.removeAttribute("height");
    }

    if (enablePanZoom) {
      var altPressed = false;
      svgPanZoom(svg, {
        minZoom: 0.2,
        maxZoom: 100,
        controlIconsEnabled: enablePanZoomControls,
        preventMouseEventsDefault: isEmbedded,
        beforeZoom: function(oldZoom, newZoom) { return !altPressed; },
        beforePan: function(oldPan, newPan) { return !altPressed; },
      });
      document.onkeydown = function(e) {
        altPressed = e.altKey;
      };
      document.onkeyup = function(e) {
        altPressed = e.altKey;
      };
    }

    var links = document.getElementsByTagName("a");
    for (var i = 0; i &lt; links.length; i++) {
      if (!links[i].getAttribute("target")) {
        links[i].setAttribute("target", "_top");
      }
    }
  };
})();
</script>
<g id="graph0" class="graph" transform="scale(1 1) rotate(0) translate(4 302)">
<title>G</title>
<polygon fill="white" stroke="none" points="-4,4 -4,-302 984.25,-302 984.25,4 -4,4"/>
<g id="clust1" class="cluster">
<title>cluster_androidx</title>
<polygon fill="none" stroke="black" points="8,-146 8,-230 535.12,-230 535.12,-146 8,-146"/>
<text xml:space="preserve" text-anchor="middle" x="66.25" y="-212.7" font-family="Arial" font-size="14.00">AndroidX Webkit</text>
</g>
<g id="clust2" class="cluster">
<title>cluster_chromium</title>
<polygon fill="none" stroke="black" points="388,-8 388,-138 809.5,-138 809.5,-8 388,-8"/>
<text xml:space="preserve" text-anchor="middle" x="516.38" y="-120.7" font-family="Arial" font-size="14.00">WebView APK - Chromium source code</text>
</g>
<g id="clust3" class="cluster">
<title>cluster_legend</title>
</g>
<!-- app_facing -->
<g id="node1" class="node">
<title>app_facing</title>
<path fill="#a9c9eb" stroke="black" d="M88.25,-198C88.25,-198 28,-198 28,-198 22,-198 16,-192 16,-186 16,-186 16,-166 16,-166 16,-160 22,-154 28,-154 28,-154 88.25,-154 88.25,-154 94.25,-154 100.25,-160 100.25,-166 100.25,-166 100.25,-186 100.25,-186 100.25,-192 94.25,-198 88.25,-198"/>
<text xml:space="preserve" text-anchor="middle" x="58.12" y="-184.5" font-family="Arial" font-size="10.00">App-facing</text>
<text xml:space="preserve" text-anchor="middle" x="58.12" y="-172.5" font-family="Arial" font-size="10.00">interfaces:</text>
<text xml:space="preserve" text-anchor="middle" x="58.12" y="-160.5" font-family="Arial" font-size="10.00">androidx.webkit</text>
</g>
<!-- adaptors -->
<g id="node2" class="node">
<title>adaptors</title>
<path fill="#a9c9eb" stroke="black" d="M297,-190C297,-190 202.25,-190 202.25,-190 196.25,-190 190.25,-184 190.25,-178 190.25,-178 190.25,-166 190.25,-166 190.25,-160 196.25,-154 202.25,-154 202.25,-154 297,-154 297,-154 303,-154 309,-160 309,-166 309,-166 309,-178 309,-178 309,-184 303,-190 297,-190"/>
<text xml:space="preserve" text-anchor="middle" x="249.62" y="-174.5" font-family="Arial" font-size="10.00">Internal adaptors:</text>
<text xml:space="preserve" text-anchor="middle" x="249.62" y="-162.5" font-family="Arial" font-size="10.00">androidx.webkit.internal</text>
</g>
<!-- app_facing&#45;&gt;adaptors -->
<g id="edge1" class="edge">
<title>app_facing-&gt;adaptors</title>
<path fill="none" stroke="black" stroke-dasharray="5,2" d="M100.71,-175.12C123.59,-174.64 152.59,-174.03 178.83,-173.47"/>
<polygon fill="black" stroke="black" points="188.66,-173.27 178.76,-177.98 184.88,-173.35 178.67,-173.48 178.67,-173.48 178.67,-173.48 184.88,-173.35 178.57,-168.98 188.66,-173.27"/>
</g>
<!-- git_mirror -->
<g id="node3" class="node">
<title>git_mirror</title>
<path fill="#a9c9eb" stroke="black" d="M515.12,-190C515.12,-190 440.62,-190 440.62,-190 434.62,-190 428.62,-184 428.62,-178 428.62,-178 428.62,-166 428.62,-166 428.62,-160 434.62,-154 440.62,-154 440.62,-154 515.12,-154 515.12,-154 521.12,-154 527.12,-160 527.12,-166 527.12,-166 527.12,-178 527.12,-178 527.12,-184 521.12,-190 515.12,-190"/>
<text xml:space="preserve" text-anchor="middle" x="477.88" y="-174.5" font-family="Arial" font-size="10.00">(Git mirror of)</text>
<text xml:space="preserve" text-anchor="middle" x="477.88" y="-162.5" font-family="Arial" font-size="10.00">Boundary Interface</text>
</g>
<!-- adaptors&#45;&gt;git_mirror -->
<g id="edge2" class="edge">
<title>adaptors-&gt;git_mirror</title>
<path fill="none" stroke="black" stroke-dasharray="5,2" d="M309.48,-172C342.65,-172 383.98,-172 417.28,-172"/>
<polygon fill="black" stroke="black" points="427.02,-172 417.02,-176.5 423.24,-172 417.02,-172 417.02,-172 417.02,-172 423.24,-172 417.02,-167.5 427.02,-172"/>
</g>
<!-- androidx_glue -->
<g id="node4" class="node">
<title>androidx_glue</title>
<path fill="#a9c9eb" stroke="black" d="M547.75,-106C547.75,-106 408,-106 408,-106 402,-106 396,-100 396,-94 396,-94 396,-82 396,-82 396,-76 402,-70 408,-70 408,-70 547.75,-70 547.75,-70 553.75,-70 559.75,-76 559.75,-82 559.75,-82 559.75,-94 559.75,-94 559.75,-100 553.75,-106 547.75,-106"/>
<text xml:space="preserve" text-anchor="middle" x="477.88" y="-90.5" font-family="Arial" font-size="10.00">AndroidX glue</text>
<text xml:space="preserve" text-anchor="middle" x="477.88" y="-78.5" font-family="Arial" font-size="10.00">//android_webview/support_library</text>
</g>
<!-- adaptors&#45;&gt;androidx_glue -->
<g id="edge6" class="edge">
<title>adaptors-&gt;androidx_glue</title>
<path fill="none" stroke="black" d="M300.28,-153.57C334.61,-140.82 380.48,-123.79 416.86,-110.28"/>
<polygon fill="black" stroke="black" points="426.2,-106.82 418.39,-114.51 422.65,-108.13 416.82,-110.3 416.82,-110.3 416.82,-110.3 422.65,-108.13 415.26,-106.08 426.2,-106.82"/>
</g>
<!-- aw_layer -->
<g id="node5" class="node">
<title>aw_layer</title>
<path fill="#a9c9eb" stroke="black" d="M756.12,-52C756.12,-52 683.12,-52 683.12,-52 677.12,-52 671.12,-46 671.12,-40 671.12,-40 671.12,-28 671.12,-28 671.12,-22 677.12,-16 683.12,-16 683.12,-16 756.12,-16 756.12,-16 762.12,-16 768.12,-22 768.12,-28 768.12,-28 768.12,-40 768.12,-40 768.12,-46 762.12,-52 756.12,-52"/>
<text xml:space="preserve" text-anchor="middle" x="719.62" y="-36.5" font-family="Arial" font-size="10.00">Aw-layer</text>
<text xml:space="preserve" text-anchor="middle" x="719.62" y="-24.5" font-family="Arial" font-size="10.00">//android_webview</text>
</g>
<!-- androidx_glue&#45;&gt;aw_layer -->
<g id="edge3" class="edge">
<title>androidx_glue-&gt;aw_layer</title>
<path fill="none" stroke="black" stroke-dasharray="5,2" d="M560.04,-69.72C592.83,-62.33 629.95,-53.97 660.02,-47.2"/>
<polygon fill="black" stroke="black" points="669.58,-45.05 660.81,-51.63 665.89,-45.88 659.82,-47.24 659.82,-47.24 659.82,-47.24 665.89,-45.88 658.83,-42.85 669.58,-45.05"/>
</g>
<!-- boundary_interface -->
<g id="node6" class="node">
<title>boundary_interface</title>
<path fill="#a9c9eb" stroke="black" d="M789.5,-106C789.5,-106 649.75,-106 649.75,-106 643.75,-106 637.75,-100 637.75,-94 637.75,-94 637.75,-82 637.75,-82 637.75,-76 643.75,-70 649.75,-70 649.75,-70 789.5,-70 789.5,-70 795.5,-70 801.5,-76 801.5,-82 801.5,-82 801.5,-94 801.5,-94 801.5,-100 795.5,-106 789.5,-106"/>
<text xml:space="preserve" text-anchor="middle" x="719.62" y="-90.5" font-family="Arial" font-size="10.00">Boundary Interface</text>
<text xml:space="preserve" text-anchor="middle" x="719.62" y="-78.5" font-family="Arial" font-size="10.00">//android_webview/support_library</text>
</g>
<!-- androidx_glue&#45;&gt;boundary_interface -->
<g id="edge4" class="edge">
<title>androidx_glue-&gt;boundary_interface</title>
<path fill="none" stroke="black" d="M560.04,-88C581.33,-88 604.44,-88 626.26,-88"/>
<polygon fill="black" stroke="black" points="626.03,-91.5 636.03,-88 626.03,-84.5 626.03,-91.5"/>
</g>
<!-- boundary_interface&#45;&gt;git_mirror -->
<g id="edge5" class="edge">
<title>boundary_interface-&gt;git_mirror</title>
<path fill="none" stroke="black" stroke-dasharray="1,5" d="M666.02,-106.43C628.17,-119.69 577.1,-137.59 537.86,-151.33"/>
<polygon fill="black" stroke="black" points="528.54,-154.6 536.49,-147.04 532.11,-153.35 537.98,-151.29 537.98,-151.29 537.98,-151.29 532.11,-153.35 539.47,-155.54 528.54,-154.6"/>
</g>
<!-- built_against_start -->
<g id="node7" class="node">
<title>built_against_start</title>
</g>
<!-- built_against_end -->
<g id="node8" class="node">
<title>built_against_end</title>
</g>
<!-- built_against_start&#45;&gt;built_against_end -->
<g id="edge7" class="edge">
<title>built_against_start-&gt;built_against_end</title>
<path fill="none" stroke="black" stroke-dasharray="5,2" d="M85.08,-264C117.87,-264 174.52,-264 211.79,-264"/>
<polygon fill="black" stroke="black" points="221.46,-264 211.46,-268.5 217.68,-264 211.46,-264 211.46,-264 211.46,-264 217.68,-264 211.46,-259.5 221.46,-264"/>
<text xml:space="preserve" text-anchor="middle" x="145.25" y="-266.5" font-family="Arial" font-size="10.00">Built against</text>
</g>
<!-- implements_end -->
<g id="node9" class="node">
<title>implements_end</title>
</g>
<!-- built_against_end&#45;&gt;implements_end -->
<g id="edge8" class="edge">
<title>built_against_end-&gt;implements_end</title>
<path fill="none" stroke="black" d="M276.58,-264C316.62,-264 393.63,-264 439.62,-264"/>
<polygon fill="black" stroke="black" points="439.36,-267.5 449.36,-264 439.36,-260.5 439.36,-267.5"/>
<text xml:space="preserve" text-anchor="middle" x="352.5" y="-266.5" font-family="Arial" font-size="10.00">Implements</text>
</g>
<!-- copied_end -->
<g id="node10" class="node">
<title>copied_end</title>
</g>
<!-- implements_end&#45;&gt;copied_end -->
<g id="edge9" class="edge">
<title>implements_end-&gt;copied_end</title>
<path fill="none" stroke="black" stroke-dasharray="1,5" d="M504.53,-264C547.14,-264 632.65,-264 681.73,-264"/>
<polygon fill="black" stroke="black" points="691.57,-264 681.57,-268.5 687.79,-264 681.57,-264 681.57,-264 681.57,-264 687.79,-264 681.57,-259.5 691.57,-264"/>
<text xml:space="preserve" text-anchor="middle" x="598.75" y="-266.5" font-family="Arial" font-size="10.00">Copied to</text>
</g>
<!-- reflective_end -->
<g id="node11" class="node">
<title>reflective_end</title>
</g>
<!-- copied_end&#45;&gt;reflective_end -->
<g id="edge10" class="edge">
<title>copied_end-&gt;reflective_end</title>
<path fill="none" stroke="black" d="M746.21,-264C784.2,-264 855.73,-264 899.38,-264"/>
<polygon fill="black" stroke="black" points="909.15,-264 899.15,-268.5 905.37,-264 899.15,-264 899.15,-264 899.15,-264 905.37,-264 899.15,-259.5 909.15,-264"/>
<text xml:space="preserve" text-anchor="middle" x="855.88" y="-266.5" font-family="Arial" font-size="10.00">Calls reflectively</text>
</g>
</g>
</svg>

